<svg xmlns="http://www.w3.org/2000/svg" viewBox="55.65 214.46 402.94 58.43">
  <path d="M 103.882 225.981 C 100.29 223.685 96.626 224.314 93.793 225.7 L 93.793 214.461 L 67.583 214.461 L 67.583 225.127 L 72.247 225.127 L 72.247 219.128 L 89.121 219.128 L 89.121 235.012 C 89.121 235.012 93.553 230.575 96.071 229.72 C 96.484 229.543 96.903 229.398 97.345 229.31 C 98.264 229.087 99.267 229.053 100.279 229.42 L 100.279 241.528 C 96.854 240.954 93.629 242.348 91.46 243.963 C 89.29 242.348 86.06 240.954 82.623 241.528 L 82.623 231.485 L 81.563 230.793 C 76.888 227.79 72.065 229.72 69.138 231.891 C 66.212 229.72 61.385 227.79 56.72 230.793 L 55.648 231.485 L 55.648 251.901 C 56.332 251.238 59.257 248.724 62.971 249.545 C 62.982 249.545 63.008 249.563 63.024 249.563 C 63.062 249.567 63.099 249.577 63.122 249.585 C 63.198 249.603 63.274 249.622 63.348 249.646 C 64.712 250.036 65.855 250.88 66.508 251.445 L 66.508 272.893 L 92.891 272.893 L 92.891 254.067 L 88.227 254.067 L 88.227 268.226 L 71.176 268.226 L 71.176 249.563 L 70.585 248.898 C 68.786 246.898 64.77 244.19 60.326 244.942 L 60.326 234.218 C 63.872 232.976 67.294 236.418 67.452 236.585 L 69.132 238.318 L 70.827 236.585 C 70.989 236.418 74.406 232.976 77.97 234.218 C 77.961 236.184 77.961 245.753 77.961 248.411 C 80.2 246.912 81.877 246.291 83.065 246.068 C 83.613 245.977 84.256 245.943 84.952 246.038 C 84.964 246.038 84.974 246.045 84.988 246.045 C 85.438 246.109 85.873 246.22 86.285 246.384 C 86.329 246.39 86.372 246.403 86.404 246.417 C 88.295 247.151 89.666 248.535 89.772 248.654 L 91.44 250.387 L 93.144 248.654 C 93.246 248.535 94.777 246.987 96.823 246.306 C 98.059 245.919 99.832 245.715 101.898 246.55 C 102.792 246.917 103.827 247.49 104.956 248.411 L 104.956 226.672 L 103.882 225.981 Z" style="fill: rgb(27, 101, 185); fill-opacity: 1; fill-rule: nonzero; stroke: none; stroke-width: 12.0215;" transform="matrix(1, 0, 0, 1, 4.440892098500626e-16, -1.4210854715202004e-14)"/>
  <g transform="matrix(0.08033701032400131, 0, 0, -0.08033701032400131, 104.30230712890626, 282.7490234375)" fill="#000000" stroke="none" style="">
    <path d="M958 773 c-3 -27 -6 -28 -60 -31 l-58 -3 0 -39 c0 -33 3 -40 19 -40 19 0 19 -2 5 -37 -22 -52 -16 -175 12 -228 40 -79 151 -106 219 -53 61 48 91 174 61 258 -20 58 -20 60 4 60 17 0 20 7 20 40 l0 40 -60 0 -60 0 0 30 c0 29 -1 30 -49 30 -47 0 -50 -2 -53 -27z m92 -145 c27 -29 33 -57 28 -124 -11 -130 -124 -138 -145 -11 -18 111 58 198 117 135z"/>
    <path d="M3970 770 l0 -30 -75 0 -75 0 0 -40 c0 -34 3 -40 21 -40 16 0 19 -4 14 -17 -38 -96 0 -190 91 -228 31 -13 34 -18 34 -54 l0 -40 -82 -3 -83 -3 -3 -43 -3 -42 255 0 255 0 3 -43 c3 -42 3 -42 46 -45 l42 -3 0 315 0 316 -45 0 -45 0 0 -225 0 -225 -125 0 -125 0 0 40 c0 36 4 41 38 59 88 45 125 132 87 205 -19 36 -19 36 5 36 17 0 20 7 20 40 l0 39 -72 3 c-71 3 -73 4 -76 31 -3 25 -6 27 -53 27 -48 0 -49 -1 -49 -30z m114 -138 c67 -61 11 -165 -80 -148 -35 7 -74 47 -74 77 0 79 95 123 154 71z"/>
    <path d="M140 725 l0 -45 120 0 c103 0 120 -2 120 -16 0 -47 -113 -104 -207 -104 l-43 0 0 -46 0 -47 64 7 c190 19 286 99 286 239 l0 57 -170 0 -170 0 0 -45z"/>
    <path d="M617 763 c-4 -3 -7 -73 -7 -155 l0 -148 50 0 50 0 0 155 0 155 -43 0 c-24 0 -47 -3 -50 -7z"/>
    <path d="M1215 757 c-3 -7 -4 -147 -3 -312 l3 -300 42 -3 43 -3 2 173 3 173 25 0 25 0 5 -170 5 -170 40 0 40 0 3 313 2 312 -45 0 -45 0 0 -100 0 -100 -30 0 -30 0 0 100 0 100 -40 0 c-24 0 -43 -5 -45 -13z"/>
    <path d="M1752 653 c-6 -65 -18 -139 -27 -165 -17 -48 -82 -118 -110 -118 -11 0 -15 -12 -15 -49 l0 -50 29 9 c63 18 129 70 158 124 l15 28 20 -33 c40 -67 91 -106 161 -123 27 -6 27 -6 27 41 -1 46 -2 49 -40 66 -21 10 -48 33 -60 52 -24 39 -47 146 -56 258 l-6 77 -42 0 -42 0 -12 -117z"/>
    <path d="M2100 455 l0 -315 45 0 45 0 0 315 0 315 -45 0 -45 0 0 -315z"/>
    <path d="M2354 756 c-3 -8 -4 -75 -2 -149 2 -95 7 -139 17 -150 20 -24 311 -25 335 -1 13 13 16 42 16 165 l0 149 -180 0 c-147 0 -182 -3 -186 -14z m274 -153 l-3 -78 -87 -3 -88 -3 0 81 0 80 90 0 91 0 -3 -77z"/>
    <path d="M2840 555 l0 -215 45 0 45 0 0 215 0 215 -45 0 -45 0 0 -215z"/>
    <path d="M3110 725 l0 -45 220 0 220 0 -2 -207 -3 -208 -50 0 -50 0 -3 128 -3 127 -44 0 -44 0 -3 -127 -3 -128 -40 0 -40 0 -3 128 -3 127 -44 0 -45 0 0 -130 0 -130 -50 0 -50 0 0 -40 0 -40 310 0 310 0 0 39 c0 33 -4 40 -22 43 l-23 3 -3 253 -2 252 -265 0 -265 0 0 -45z"/>
    <path d="M160 297 c0 -82 4 -127 12 -135 9 -9 81 -12 265 -12 239 0 253 1 263 19 5 11 10 72 10 135 l0 116 -275 0 -275 0 0 -123z m450 -12 l0 -55 -180 0 -180 0 0 55 0 55 180 0 180 0 0 -55z"/>
    <path d="M2380 276 c0 -73 4 -98 16 -110 13 -14 52 -16 275 -16 l259 0 0 40 0 40 -225 0 -225 0 0 70 0 70 -50 0 -50 0 0 -94z"/>
  </g>
</svg>